<mxfile host="app.diagrams.net" modified="2023-02-09T05:12:38.277Z" agent="5.0 (Windows NT 10.0; Win64; x64) AppleWebKit/537.36 (KHTML, like Gecko) Chrome/109.0.0.0 Safari/537.36" etag="PM39iOcKcN7CU30c5sHT" version="20.8.18" type="github">
  <diagram name="ページ1" id="foNejhQpv58raCO9X5WB">
    <mxGraphModel dx="1195" dy="657" grid="1" gridSize="10" guides="1" tooltips="1" connect="1" arrows="1" fold="1" page="1" pageScale="1" pageWidth="827" pageHeight="1169" math="0" shadow="0">
      <root>
        <mxCell id="0" />
        <mxCell id="1" parent="0" />
        <mxCell id="5ekteXIeJURZdxyqF-8k-1" value="" style="shape=note;whiteSpace=wrap;html=1;backgroundOutline=1;darkOpacity=0.05;size=21;" parent="1" vertex="1">
          <mxGeometry x="189.38" y="198.12" width="75" height="93.75" as="geometry" />
        </mxCell>
        <mxCell id="5ekteXIeJURZdxyqF-8k-2" value="&lt;span style=&quot;font-size: 22px;&quot;&gt;LOG&lt;/span&gt;" style="text;html=1;strokeColor=none;fillColor=#000000;align=center;verticalAlign=middle;whiteSpace=wrap;rounded=1;fontColor=#FFFFFF;fontStyle=1;fontSize=22;" parent="1" vertex="1">
          <mxGeometry x="170" y="229.99" width="113.75" height="30" as="geometry" />
        </mxCell>
        <mxCell id="5ekteXIeJURZdxyqF-8k-8" value="" style="shape=flexArrow;endArrow=classic;html=1;rounded=0;strokeWidth=1;fontSize=18;fontColor=#000000;" parent="1" edge="1">
          <mxGeometry width="50" height="50" relative="1" as="geometry">
            <mxPoint x="290" y="244.41" as="sourcePoint" />
            <mxPoint x="430" y="244.41" as="targetPoint" />
          </mxGeometry>
        </mxCell>
        <mxCell id="5ekteXIeJURZdxyqF-8k-9" value="" style="shape=flexArrow;endArrow=classic;html=1;rounded=0;strokeWidth=1;fontSize=18;fontColor=#000000;" parent="1" edge="1">
          <mxGeometry width="50" height="50" relative="1" as="geometry">
            <mxPoint x="182.54000000000002" y="320.0000000000001" as="sourcePoint" />
            <mxPoint x="182.54000000000002" y="420" as="targetPoint" />
          </mxGeometry>
        </mxCell>
        <mxCell id="5ekteXIeJURZdxyqF-8k-10" value="" style="shape=flexArrow;endArrow=classic;html=1;rounded=0;strokeWidth=1;fontSize=18;fontColor=#000000;" parent="1" edge="1">
          <mxGeometry width="50" height="50" relative="1" as="geometry">
            <mxPoint x="230" y="320" as="sourcePoint" />
            <mxPoint x="359.40999999999997" y="420" as="targetPoint" />
          </mxGeometry>
        </mxCell>
        <mxCell id="5ekteXIeJURZdxyqF-8k-11" value="" style="shape=flexArrow;endArrow=classic;html=1;rounded=0;strokeWidth=1;fontSize=18;fontColor=#000000;" parent="1" edge="1">
          <mxGeometry width="50" height="50" relative="1" as="geometry">
            <mxPoint x="290" y="320" as="sourcePoint" />
            <mxPoint x="570" y="430" as="targetPoint" />
          </mxGeometry>
        </mxCell>
        <mxCell id="5ekteXIeJURZdxyqF-8k-12" value="従来手法" style="text;html=1;strokeColor=default;fillColor=default;align=center;verticalAlign=middle;whiteSpace=wrap;rounded=0;fontSize=18;fontColor=#000000;" parent="1" vertex="1">
          <mxGeometry x="300" y="190" width="110" height="30" as="geometry" />
        </mxCell>
        <mxCell id="5ekteXIeJURZdxyqF-8k-13" value="提案手法" style="text;html=1;strokeColor=default;fillColor=default;align=center;verticalAlign=middle;whiteSpace=wrap;rounded=0;fontSize=18;fontColor=#000000;" parent="1" vertex="1">
          <mxGeometry x="143.63" y="350" width="506.37" height="30" as="geometry" />
        </mxCell>
        <mxCell id="__1QfUSbnGBj_9HTlFFQ-14" value="" style="group" vertex="1" connectable="0" parent="1">
          <mxGeometry x="450" y="171.3" width="190" height="120.57" as="geometry" />
        </mxCell>
        <mxCell id="__1QfUSbnGBj_9HTlFFQ-2" value="" style="rounded=0;whiteSpace=wrap;html=1;" vertex="1" parent="__1QfUSbnGBj_9HTlFFQ-14">
          <mxGeometry x="51.15384615384615" width="58.46153846153846" height="18.261981332201948" as="geometry" />
        </mxCell>
        <mxCell id="__1QfUSbnGBj_9HTlFFQ-3" value="" style="rounded=0;whiteSpace=wrap;html=1;" vertex="1" parent="__1QfUSbnGBj_9HTlFFQ-14">
          <mxGeometry x="43.84615384615385" y="102.30801866779804" width="58.46153846153846" height="18.261981332201948" as="geometry" />
        </mxCell>
        <mxCell id="__1QfUSbnGBj_9HTlFFQ-4" value="" style="rounded=0;whiteSpace=wrap;html=1;" vertex="1" parent="__1QfUSbnGBj_9HTlFFQ-14">
          <mxGeometry y="52.52055215467604" width="58.46153846153846" height="18.261981332201948" as="geometry" />
        </mxCell>
        <mxCell id="__1QfUSbnGBj_9HTlFFQ-8" style="edgeStyle=orthogonalEdgeStyle;rounded=0;orthogonalLoop=1;jettySize=auto;html=1;exitX=0.5;exitY=1;exitDx=0;exitDy=0;entryX=0.5;entryY=0;entryDx=0;entryDy=0;endArrow=none;endFill=0;" edge="1" parent="__1QfUSbnGBj_9HTlFFQ-14" source="__1QfUSbnGBj_9HTlFFQ-2" target="__1QfUSbnGBj_9HTlFFQ-4">
          <mxGeometry relative="1" as="geometry">
            <Array as="points">
              <mxPoint x="80" y="39" />
              <mxPoint x="29" y="39" />
            </Array>
          </mxGeometry>
        </mxCell>
        <mxCell id="__1QfUSbnGBj_9HTlFFQ-11" style="edgeStyle=orthogonalEdgeStyle;rounded=0;orthogonalLoop=1;jettySize=auto;html=1;exitX=0.5;exitY=1;exitDx=0;exitDy=0;entryX=0.5;entryY=0;entryDx=0;entryDy=0;endArrow=none;endFill=0;" edge="1" parent="__1QfUSbnGBj_9HTlFFQ-14" source="__1QfUSbnGBj_9HTlFFQ-5" target="__1QfUSbnGBj_9HTlFFQ-3">
          <mxGeometry relative="1" as="geometry" />
        </mxCell>
        <mxCell id="__1QfUSbnGBj_9HTlFFQ-5" value="" style="rounded=0;whiteSpace=wrap;html=1;" vertex="1" parent="__1QfUSbnGBj_9HTlFFQ-14">
          <mxGeometry x="87.6923076923077" y="52.52055215467604" width="58.46153846153846" height="18.261981332201948" as="geometry" />
        </mxCell>
        <mxCell id="__1QfUSbnGBj_9HTlFFQ-9" style="edgeStyle=orthogonalEdgeStyle;rounded=0;orthogonalLoop=1;jettySize=auto;html=1;exitX=0.5;exitY=1;exitDx=0;exitDy=0;entryX=0.5;entryY=0;entryDx=0;entryDy=0;endArrow=none;endFill=0;" edge="1" parent="__1QfUSbnGBj_9HTlFFQ-14" source="__1QfUSbnGBj_9HTlFFQ-2" target="__1QfUSbnGBj_9HTlFFQ-5">
          <mxGeometry relative="1" as="geometry">
            <Array as="points">
              <mxPoint x="80" y="39" />
              <mxPoint x="117" y="39" />
            </Array>
          </mxGeometry>
        </mxCell>
        <mxCell id="__1QfUSbnGBj_9HTlFFQ-12" value="" style="rounded=0;whiteSpace=wrap;html=1;" vertex="1" parent="__1QfUSbnGBj_9HTlFFQ-14">
          <mxGeometry x="131.53846153846152" y="102.30801866779804" width="58.46153846153846" height="18.261981332201948" as="geometry" />
        </mxCell>
        <mxCell id="__1QfUSbnGBj_9HTlFFQ-13" style="edgeStyle=orthogonalEdgeStyle;rounded=0;orthogonalLoop=1;jettySize=auto;html=1;exitX=0.5;exitY=1;exitDx=0;exitDy=0;entryX=0.5;entryY=0;entryDx=0;entryDy=0;endArrow=none;endFill=0;" edge="1" parent="__1QfUSbnGBj_9HTlFFQ-14" source="__1QfUSbnGBj_9HTlFFQ-5" target="__1QfUSbnGBj_9HTlFFQ-12">
          <mxGeometry relative="1" as="geometry" />
        </mxCell>
        <mxCell id="__1QfUSbnGBj_9HTlFFQ-86" value="" style="group" vertex="1" connectable="0" parent="1">
          <mxGeometry x="100" y="440" width="190" height="120.57" as="geometry" />
        </mxCell>
        <mxCell id="__1QfUSbnGBj_9HTlFFQ-87" value="" style="rounded=0;whiteSpace=wrap;html=1;" vertex="1" parent="__1QfUSbnGBj_9HTlFFQ-86">
          <mxGeometry x="51.15384615384615" width="58.46153846153846" height="18.261981332201948" as="geometry" />
        </mxCell>
        <mxCell id="__1QfUSbnGBj_9HTlFFQ-88" value="" style="rounded=0;whiteSpace=wrap;html=1;" vertex="1" parent="__1QfUSbnGBj_9HTlFFQ-86">
          <mxGeometry x="43.84615384615385" y="102.30801866779804" width="58.46153846153846" height="18.261981332201948" as="geometry" />
        </mxCell>
        <mxCell id="__1QfUSbnGBj_9HTlFFQ-89" value="" style="rounded=0;whiteSpace=wrap;html=1;" vertex="1" parent="__1QfUSbnGBj_9HTlFFQ-86">
          <mxGeometry y="52.52055215467604" width="58.46153846153846" height="18.261981332201948" as="geometry" />
        </mxCell>
        <mxCell id="__1QfUSbnGBj_9HTlFFQ-90" style="edgeStyle=orthogonalEdgeStyle;rounded=0;orthogonalLoop=1;jettySize=auto;html=1;exitX=0.5;exitY=1;exitDx=0;exitDy=0;entryX=0.5;entryY=0;entryDx=0;entryDy=0;endArrow=none;endFill=0;" edge="1" parent="__1QfUSbnGBj_9HTlFFQ-86" source="__1QfUSbnGBj_9HTlFFQ-87" target="__1QfUSbnGBj_9HTlFFQ-89">
          <mxGeometry relative="1" as="geometry">
            <Array as="points">
              <mxPoint x="80" y="39" />
              <mxPoint x="29" y="39" />
            </Array>
          </mxGeometry>
        </mxCell>
        <mxCell id="__1QfUSbnGBj_9HTlFFQ-91" style="edgeStyle=orthogonalEdgeStyle;rounded=0;orthogonalLoop=1;jettySize=auto;html=1;exitX=0.5;exitY=1;exitDx=0;exitDy=0;entryX=0.5;entryY=0;entryDx=0;entryDy=0;endArrow=none;endFill=0;" edge="1" parent="__1QfUSbnGBj_9HTlFFQ-86" source="__1QfUSbnGBj_9HTlFFQ-92" target="__1QfUSbnGBj_9HTlFFQ-88">
          <mxGeometry relative="1" as="geometry" />
        </mxCell>
        <mxCell id="__1QfUSbnGBj_9HTlFFQ-92" value="" style="rounded=0;whiteSpace=wrap;html=1;" vertex="1" parent="__1QfUSbnGBj_9HTlFFQ-86">
          <mxGeometry x="87.6923076923077" y="52.52055215467604" width="58.46153846153846" height="18.261981332201948" as="geometry" />
        </mxCell>
        <mxCell id="__1QfUSbnGBj_9HTlFFQ-93" style="edgeStyle=orthogonalEdgeStyle;rounded=0;orthogonalLoop=1;jettySize=auto;html=1;exitX=0.5;exitY=1;exitDx=0;exitDy=0;entryX=0.5;entryY=0;entryDx=0;entryDy=0;endArrow=none;endFill=0;" edge="1" parent="__1QfUSbnGBj_9HTlFFQ-86" source="__1QfUSbnGBj_9HTlFFQ-87" target="__1QfUSbnGBj_9HTlFFQ-92">
          <mxGeometry relative="1" as="geometry">
            <Array as="points">
              <mxPoint x="80" y="39" />
              <mxPoint x="117" y="39" />
            </Array>
          </mxGeometry>
        </mxCell>
        <mxCell id="__1QfUSbnGBj_9HTlFFQ-94" value="" style="rounded=0;whiteSpace=wrap;html=1;" vertex="1" parent="__1QfUSbnGBj_9HTlFFQ-86">
          <mxGeometry x="131.53846153846152" y="102.30801866779804" width="58.46153846153846" height="18.261981332201948" as="geometry" />
        </mxCell>
        <mxCell id="__1QfUSbnGBj_9HTlFFQ-95" style="edgeStyle=orthogonalEdgeStyle;rounded=0;orthogonalLoop=1;jettySize=auto;html=1;exitX=0.5;exitY=1;exitDx=0;exitDy=0;entryX=0.5;entryY=0;entryDx=0;entryDy=0;endArrow=none;endFill=0;" edge="1" parent="__1QfUSbnGBj_9HTlFFQ-86" source="__1QfUSbnGBj_9HTlFFQ-92" target="__1QfUSbnGBj_9HTlFFQ-94">
          <mxGeometry relative="1" as="geometry" />
        </mxCell>
        <mxCell id="__1QfUSbnGBj_9HTlFFQ-96" value="" style="group" vertex="1" connectable="0" parent="1">
          <mxGeometry x="540" y="440" width="190" height="120.57" as="geometry" />
        </mxCell>
        <mxCell id="__1QfUSbnGBj_9HTlFFQ-97" value="" style="rounded=0;whiteSpace=wrap;html=1;" vertex="1" parent="__1QfUSbnGBj_9HTlFFQ-96">
          <mxGeometry x="51.15384615384615" width="58.46153846153846" height="18.261981332201948" as="geometry" />
        </mxCell>
        <mxCell id="__1QfUSbnGBj_9HTlFFQ-98" value="" style="rounded=0;whiteSpace=wrap;html=1;" vertex="1" parent="__1QfUSbnGBj_9HTlFFQ-96">
          <mxGeometry x="43.84615384615385" y="102.30801866779804" width="58.46153846153846" height="18.261981332201948" as="geometry" />
        </mxCell>
        <mxCell id="__1QfUSbnGBj_9HTlFFQ-99" value="" style="rounded=0;whiteSpace=wrap;html=1;" vertex="1" parent="__1QfUSbnGBj_9HTlFFQ-96">
          <mxGeometry y="52.52055215467604" width="58.46153846153846" height="18.261981332201948" as="geometry" />
        </mxCell>
        <mxCell id="__1QfUSbnGBj_9HTlFFQ-100" style="edgeStyle=orthogonalEdgeStyle;rounded=0;orthogonalLoop=1;jettySize=auto;html=1;exitX=0.5;exitY=1;exitDx=0;exitDy=0;entryX=0.5;entryY=0;entryDx=0;entryDy=0;endArrow=none;endFill=0;" edge="1" parent="__1QfUSbnGBj_9HTlFFQ-96" source="__1QfUSbnGBj_9HTlFFQ-97" target="__1QfUSbnGBj_9HTlFFQ-99">
          <mxGeometry relative="1" as="geometry">
            <Array as="points">
              <mxPoint x="80" y="39" />
              <mxPoint x="29" y="39" />
            </Array>
          </mxGeometry>
        </mxCell>
        <mxCell id="__1QfUSbnGBj_9HTlFFQ-101" style="edgeStyle=orthogonalEdgeStyle;rounded=0;orthogonalLoop=1;jettySize=auto;html=1;exitX=0.5;exitY=1;exitDx=0;exitDy=0;entryX=0.5;entryY=0;entryDx=0;entryDy=0;endArrow=none;endFill=0;" edge="1" parent="__1QfUSbnGBj_9HTlFFQ-96" source="__1QfUSbnGBj_9HTlFFQ-102" target="__1QfUSbnGBj_9HTlFFQ-98">
          <mxGeometry relative="1" as="geometry" />
        </mxCell>
        <mxCell id="__1QfUSbnGBj_9HTlFFQ-102" value="" style="rounded=0;whiteSpace=wrap;html=1;" vertex="1" parent="__1QfUSbnGBj_9HTlFFQ-96">
          <mxGeometry x="87.6923076923077" y="52.52055215467604" width="58.46153846153846" height="18.261981332201948" as="geometry" />
        </mxCell>
        <mxCell id="__1QfUSbnGBj_9HTlFFQ-103" style="edgeStyle=orthogonalEdgeStyle;rounded=0;orthogonalLoop=1;jettySize=auto;html=1;exitX=0.5;exitY=1;exitDx=0;exitDy=0;entryX=0.5;entryY=0;entryDx=0;entryDy=0;endArrow=none;endFill=0;" edge="1" parent="__1QfUSbnGBj_9HTlFFQ-96" source="__1QfUSbnGBj_9HTlFFQ-97" target="__1QfUSbnGBj_9HTlFFQ-102">
          <mxGeometry relative="1" as="geometry">
            <Array as="points">
              <mxPoint x="80" y="39" />
              <mxPoint x="117" y="39" />
            </Array>
          </mxGeometry>
        </mxCell>
        <mxCell id="__1QfUSbnGBj_9HTlFFQ-104" value="" style="rounded=0;whiteSpace=wrap;html=1;" vertex="1" parent="__1QfUSbnGBj_9HTlFFQ-96">
          <mxGeometry x="131.53846153846152" y="102.30801866779804" width="58.46153846153846" height="18.261981332201948" as="geometry" />
        </mxCell>
        <mxCell id="__1QfUSbnGBj_9HTlFFQ-105" style="edgeStyle=orthogonalEdgeStyle;rounded=0;orthogonalLoop=1;jettySize=auto;html=1;exitX=0.5;exitY=1;exitDx=0;exitDy=0;entryX=0.5;entryY=0;entryDx=0;entryDy=0;endArrow=none;endFill=0;" edge="1" parent="__1QfUSbnGBj_9HTlFFQ-96" source="__1QfUSbnGBj_9HTlFFQ-102" target="__1QfUSbnGBj_9HTlFFQ-104">
          <mxGeometry relative="1" as="geometry" />
        </mxCell>
        <mxCell id="__1QfUSbnGBj_9HTlFFQ-106" value="" style="group" vertex="1" connectable="0" parent="1">
          <mxGeometry x="319" y="440" width="190" height="120.57" as="geometry" />
        </mxCell>
        <mxCell id="__1QfUSbnGBj_9HTlFFQ-107" value="" style="rounded=0;whiteSpace=wrap;html=1;" vertex="1" parent="__1QfUSbnGBj_9HTlFFQ-106">
          <mxGeometry x="51.15384615384615" width="58.46153846153846" height="18.261981332201948" as="geometry" />
        </mxCell>
        <mxCell id="__1QfUSbnGBj_9HTlFFQ-108" value="" style="rounded=0;whiteSpace=wrap;html=1;" vertex="1" parent="__1QfUSbnGBj_9HTlFFQ-106">
          <mxGeometry x="43.84615384615385" y="102.30801866779804" width="58.46153846153846" height="18.261981332201948" as="geometry" />
        </mxCell>
        <mxCell id="__1QfUSbnGBj_9HTlFFQ-109" value="" style="rounded=0;whiteSpace=wrap;html=1;" vertex="1" parent="__1QfUSbnGBj_9HTlFFQ-106">
          <mxGeometry y="52.52055215467604" width="58.46153846153846" height="18.261981332201948" as="geometry" />
        </mxCell>
        <mxCell id="__1QfUSbnGBj_9HTlFFQ-110" style="edgeStyle=orthogonalEdgeStyle;rounded=0;orthogonalLoop=1;jettySize=auto;html=1;exitX=0.5;exitY=1;exitDx=0;exitDy=0;entryX=0.5;entryY=0;entryDx=0;entryDy=0;endArrow=none;endFill=0;" edge="1" parent="__1QfUSbnGBj_9HTlFFQ-106" source="__1QfUSbnGBj_9HTlFFQ-107" target="__1QfUSbnGBj_9HTlFFQ-109">
          <mxGeometry relative="1" as="geometry">
            <Array as="points">
              <mxPoint x="80" y="39" />
              <mxPoint x="29" y="39" />
            </Array>
          </mxGeometry>
        </mxCell>
        <mxCell id="__1QfUSbnGBj_9HTlFFQ-111" style="edgeStyle=orthogonalEdgeStyle;rounded=0;orthogonalLoop=1;jettySize=auto;html=1;exitX=0.5;exitY=1;exitDx=0;exitDy=0;entryX=0.5;entryY=0;entryDx=0;entryDy=0;endArrow=none;endFill=0;" edge="1" parent="__1QfUSbnGBj_9HTlFFQ-106" source="__1QfUSbnGBj_9HTlFFQ-112" target="__1QfUSbnGBj_9HTlFFQ-108">
          <mxGeometry relative="1" as="geometry" />
        </mxCell>
        <mxCell id="__1QfUSbnGBj_9HTlFFQ-112" value="" style="rounded=0;whiteSpace=wrap;html=1;" vertex="1" parent="__1QfUSbnGBj_9HTlFFQ-106">
          <mxGeometry x="87.6923076923077" y="52.52055215467604" width="58.46153846153846" height="18.261981332201948" as="geometry" />
        </mxCell>
        <mxCell id="__1QfUSbnGBj_9HTlFFQ-113" style="edgeStyle=orthogonalEdgeStyle;rounded=0;orthogonalLoop=1;jettySize=auto;html=1;exitX=0.5;exitY=1;exitDx=0;exitDy=0;entryX=0.5;entryY=0;entryDx=0;entryDy=0;endArrow=none;endFill=0;" edge="1" parent="__1QfUSbnGBj_9HTlFFQ-106" source="__1QfUSbnGBj_9HTlFFQ-107" target="__1QfUSbnGBj_9HTlFFQ-112">
          <mxGeometry relative="1" as="geometry">
            <Array as="points">
              <mxPoint x="80" y="39" />
              <mxPoint x="117" y="39" />
            </Array>
          </mxGeometry>
        </mxCell>
        <mxCell id="__1QfUSbnGBj_9HTlFFQ-114" value="" style="rounded=0;whiteSpace=wrap;html=1;" vertex="1" parent="__1QfUSbnGBj_9HTlFFQ-106">
          <mxGeometry x="131.53846153846152" y="102.30801866779804" width="58.46153846153846" height="18.261981332201948" as="geometry" />
        </mxCell>
        <mxCell id="__1QfUSbnGBj_9HTlFFQ-115" style="edgeStyle=orthogonalEdgeStyle;rounded=0;orthogonalLoop=1;jettySize=auto;html=1;exitX=0.5;exitY=1;exitDx=0;exitDy=0;entryX=0.5;entryY=0;entryDx=0;entryDy=0;endArrow=none;endFill=0;" edge="1" parent="__1QfUSbnGBj_9HTlFFQ-106" source="__1QfUSbnGBj_9HTlFFQ-112" target="__1QfUSbnGBj_9HTlFFQ-114">
          <mxGeometry relative="1" as="geometry" />
        </mxCell>
        <mxCell id="__1QfUSbnGBj_9HTlFFQ-116" value="&lt;font style=&quot;font-size: 15px;&quot;&gt;トライ&lt;br&gt;unum&lt;/font&gt;" style="text;html=1;strokeColor=none;fillColor=none;align=center;verticalAlign=middle;whiteSpace=wrap;rounded=0;" vertex="1" parent="1">
          <mxGeometry x="515" y="300" width="60" height="30" as="geometry" />
        </mxCell>
        <mxCell id="__1QfUSbnGBj_9HTlFFQ-117" value="&lt;font style=&quot;font-size: 15px;&quot;&gt;トライ&lt;br&gt;grid9&lt;br&gt;&lt;/font&gt;" style="text;html=1;strokeColor=none;fillColor=none;align=center;verticalAlign=middle;whiteSpace=wrap;rounded=0;" vertex="1" parent="1">
          <mxGeometry x="165" y="570" width="60" height="30" as="geometry" />
        </mxCell>
        <mxCell id="__1QfUSbnGBj_9HTlFFQ-119" value="&lt;font style=&quot;font-size: 15px;&quot;&gt;トライ&lt;br&gt;grid26&lt;br&gt;&lt;/font&gt;" style="text;html=1;strokeColor=none;fillColor=none;align=center;verticalAlign=middle;whiteSpace=wrap;rounded=0;" vertex="1" parent="1">
          <mxGeometry x="605" y="580" width="60" height="30" as="geometry" />
        </mxCell>
        <mxCell id="__1QfUSbnGBj_9HTlFFQ-120" value="&lt;font style=&quot;font-size: 15px;&quot;&gt;トライ&lt;br&gt;grid16&lt;br&gt;&lt;/font&gt;" style="text;html=1;strokeColor=none;fillColor=none;align=center;verticalAlign=middle;whiteSpace=wrap;rounded=0;" vertex="1" parent="1">
          <mxGeometry x="384" y="580" width="60" height="30" as="geometry" />
        </mxCell>
      </root>
    </mxGraphModel>
  </diagram>
</mxfile>
